<svg width="100" height="100" viewBox="0 0 100 100" fill="none" xmlns="http://www.w3.org/2000/svg">
  <g>
    <!-- Raindrop 1 -->
    <path d="M20 10 Q20 20 15 25 Q10 20 10 10 Q15 5 20 10Z" fill="#4FADE3" opacity="0.7">
      <animateTransform
        attributeName="transform"
        type="translate"
        from="0 -30"
        to="0 130"
        dur="1s"
        repeatCount="indefinite"
      />
    </path>
    
    <!-- Raindrop 2 -->
    <path d="M40 5 Q40 15 35 20 Q30 15 30 5 Q35 0 40 5Z" fill="#4FADE3" opacity="0.5">
      <animateTransform
        attributeName="transform"
        type="translate"
        from="0 -10"
        to="0 130"
        dur="1.5s"
        repeatCount="indefinite"
      />
    </path>
    
    <!-- Raindrop 3 -->
    <path d="M60 10 Q60 20 55 25 Q50 20 50 10 Q55 5 60 10Z" fill="#4FADE3" opacity="0.6">
      <animateTransform
        attributeName="transform"
        type="translate"
        from="0 -50"
        to="0 130"
        dur="0.7s"
        repeatCount="indefinite"
      />
    </path>
    
    <!-- Raindrop 4 -->
    <path d="M80 5 Q80 15 75 20 Q70 15 70 5 Q75 0 80 5Z" fill="#4FADE3" opacity="0.8">
      <animateTransform
        attributeName="transform"
        type="translate"
        from="0 -20"
        to="0 130"
        dur="1.2s"
        repeatCount="indefinite"
      />
    </path>
    
    <!-- Raindrop 5 -->
    <path d="M95 10 Q95 20 90 25 Q85 20 85 10 Q90 5 95 10Z" fill="#4FADE3" opacity="0.4">
      <animateTransform
        attributeName="transform"
        type="translate"
        from="0 -40"
        to="0 130"
        dur="0.9s"
        repeatCount="indefinite"
      />
    </path>
  </g>
</svg>
